# xmcd
#
# Track frame offsets: 
#        150
#        22090
#        41085
#        64220
#        81142
#        100965
#        123465
#        145412
#        164862
#        194010
#        216795
#
# Disc length: 3029 seconds
#
# Revision: 2
# Processed by: cddbd v1.5.2PL0 Copyright (c) Steve Scherf et al.
# Submitted via: ExactAudioCopyFreeDBPlugin 1.0
#
DISCID=ae0bd30b
DTITLE=Annie Lennox - Diva
DYEAR=1992
DGENRE=Pop
TTITLE0=Why
TTITLE1=Walking on Broken Glass
TTITLE2=Precious
TTITLE3=Legend in My Living Room
TTITLE4=Cold
TTITLE5=Money Can't Buy It
TTITLE6=Little Bird
TTITLE7=Primitive
TTITLE8=Stay by Me
TTITLE9=The Gift
TTITLE10=Keep Young and Beautiful
EXTD=
EXTT0=
EXTT1=
EXTT2=
EXTT3=
EXTT4=
EXTT5=
EXTT6=
EXTT7=
EXTT8=
EXTT9=
EXTT10=
PLAYORDER=
